<mxfile host="app.diagrams.net" modified="2023-12-12T08:19:41.606Z" agent="Mozilla/5.0 (Windows NT 10.0; Win64; x64) AppleWebKit/537.36 (KHTML, like Gecko) Chrome/119.0.0.0 Safari/537.36" etag="arXfAWLZRnZO-EU3O27a" version="22.1.7" type="device">
  <diagram name="Strona-1" id="Z5Z5Rg_RECum3ZvuGnL7">
    <mxGraphModel dx="1434" dy="782" grid="1" gridSize="10" guides="1" tooltips="1" connect="1" arrows="1" fold="1" page="1" pageScale="1" pageWidth="827" pageHeight="1169" math="0" shadow="0">
      <root>
        <mxCell id="0" />
        <mxCell id="1" parent="0" />
        <mxCell id="JfhitiqiBvcims726Zc8-1" value="" style="whiteSpace=wrap;html=1;aspect=fixed;" vertex="1" parent="1">
          <mxGeometry x="155" y="190" width="510" height="510" as="geometry" />
        </mxCell>
        <mxCell id="JfhitiqiBvcims726Zc8-2" value="KALKULATOR BMI&lt;br&gt;" style="text;html=1;strokeColor=none;fillColor=none;align=center;verticalAlign=middle;whiteSpace=wrap;rounded=0;" vertex="1" parent="1">
          <mxGeometry x="325" y="210" width="140" height="30" as="geometry" />
        </mxCell>
        <mxCell id="JfhitiqiBvcims726Zc8-4" value="" style="rounded=0;whiteSpace=wrap;html=1;align=left;" vertex="1" parent="1">
          <mxGeometry x="170" y="230" width="470" height="160" as="geometry" />
        </mxCell>
        <mxCell id="JfhitiqiBvcims726Zc8-5" value="PODAJ SWOJA WAGE: (kg)&lt;br&gt;" style="text;html=1;strokeColor=none;fillColor=none;align=center;verticalAlign=middle;whiteSpace=wrap;rounded=0;" vertex="1" parent="1">
          <mxGeometry x="180" y="210" width="140" height="30" as="geometry" />
        </mxCell>
        <mxCell id="JfhitiqiBvcims726Zc8-6" value="TU PODAJESZ SWOJA WAGE&lt;br&gt;&lt;br&gt;" style="text;html=1;strokeColor=none;fillColor=none;align=center;verticalAlign=middle;whiteSpace=wrap;rounded=0;" vertex="1" parent="1">
          <mxGeometry x="200" y="265" width="100" height="65" as="geometry" />
        </mxCell>
        <mxCell id="JfhitiqiBvcims726Zc8-7" value="PODAJ SWOJ WZROST: (cm)&lt;br&gt;" style="text;html=1;strokeColor=none;fillColor=none;align=center;verticalAlign=middle;whiteSpace=wrap;rounded=0;" vertex="1" parent="1">
          <mxGeometry x="470" y="210" width="160" height="30" as="geometry" />
        </mxCell>
        <mxCell id="JfhitiqiBvcims726Zc8-8" value="TU PODAJESZ SWOJ WZROST&lt;br&gt;" style="text;html=1;strokeColor=none;fillColor=none;align=center;verticalAlign=middle;whiteSpace=wrap;rounded=0;" vertex="1" parent="1">
          <mxGeometry x="480" y="260" width="130" height="60" as="geometry" />
        </mxCell>
        <mxCell id="JfhitiqiBvcims726Zc8-9" value="OBLICZ&lt;br&gt;" style="rounded=0;whiteSpace=wrap;html=1;" vertex="1" parent="1">
          <mxGeometry x="345" y="300" width="120" height="60" as="geometry" />
        </mxCell>
        <mxCell id="JfhitiqiBvcims726Zc8-10" value="Text" style="text;html=1;strokeColor=none;fillColor=none;align=center;verticalAlign=middle;whiteSpace=wrap;rounded=0;" vertex="1" parent="1">
          <mxGeometry x="370" y="390" width="60" height="30" as="geometry" />
        </mxCell>
        <mxCell id="JfhitiqiBvcims726Zc8-11" value="" style="rounded=0;whiteSpace=wrap;html=1;" vertex="1" parent="1">
          <mxGeometry x="170" y="370" width="470" height="70" as="geometry" />
        </mxCell>
        <mxCell id="JfhitiqiBvcims726Zc8-12" value="TWOJE BMI TO = Wynik" style="text;html=1;strokeColor=none;fillColor=none;align=center;verticalAlign=middle;whiteSpace=wrap;rounded=0;" vertex="1" parent="1">
          <mxGeometry x="170" y="380" width="220" height="50" as="geometry" />
        </mxCell>
        <mxCell id="JfhitiqiBvcims726Zc8-15" value="Wynik prawidłowy nie prawidłowy niedowaga nadwaga&lt;br&gt;" style="rounded=0;whiteSpace=wrap;html=1;" vertex="1" parent="1">
          <mxGeometry x="470" y="375" width="120" height="60" as="geometry" />
        </mxCell>
        <mxCell id="JfhitiqiBvcims726Zc8-20" value="&lt;div&gt;BMI&lt;/div&gt;&lt;div&gt;Interpretacja wyniku&lt;/div&gt;&lt;div&gt;&amp;lt;16,0&lt;span style=&quot;white-space: pre;&quot;&gt;&amp;nbsp;&amp;nbsp;&amp;nbsp;&amp;nbsp;&lt;/span&gt;wygłodzenie&lt;/div&gt;&lt;div&gt;16,0 – 16,9&lt;span style=&quot;&quot;&gt;&lt;span style=&quot;white-space: pre;&quot;&gt;&amp;nbsp;&amp;nbsp;&amp;nbsp;&amp;nbsp;&lt;/span&gt;&lt;/span&gt;wychudzenie&lt;/div&gt;&lt;div&gt;17,0 - 18,5&lt;span style=&quot;&quot;&gt;&lt;span style=&quot;white-space: pre;&quot;&gt;&amp;nbsp;&amp;nbsp;&amp;nbsp;&amp;nbsp;&lt;/span&gt;&lt;/span&gt;niedowaga&lt;/div&gt;&lt;div&gt;18,5–24,9&lt;span style=&quot;&quot;&gt;&lt;span style=&quot;white-space: pre;&quot;&gt;&amp;nbsp;&amp;nbsp;&amp;nbsp;&amp;nbsp;&lt;/span&gt;&lt;/span&gt;waga prawidłowa&lt;/div&gt;&lt;div&gt;25,0–29,9&lt;span style=&quot;&quot;&gt;&lt;span style=&quot;white-space: pre;&quot;&gt;&amp;nbsp;&amp;nbsp;&amp;nbsp;&amp;nbsp;&lt;/span&gt;&lt;/span&gt;nadwaga&lt;/div&gt;&lt;div&gt;30,0–34,9&lt;span style=&quot;&quot;&gt;&lt;span style=&quot;white-space: pre;&quot;&gt;&amp;nbsp;&amp;nbsp;&amp;nbsp;&amp;nbsp;&lt;/span&gt;&lt;/span&gt;otyłość I stopnia&lt;/div&gt;&lt;div&gt;35,0–39,9&lt;span style=&quot;&quot;&gt;&lt;span style=&quot;white-space: pre;&quot;&gt;&amp;nbsp;&amp;nbsp;&amp;nbsp;&amp;nbsp;&lt;/span&gt;&lt;/span&gt;otyłość II stopnia&lt;/div&gt;&lt;div&gt;≥40&lt;span style=&quot;&quot;&gt;&lt;span style=&quot;white-space: pre;&quot;&gt;&amp;nbsp;&amp;nbsp;&amp;nbsp;&amp;nbsp;&lt;/span&gt;&lt;/span&gt;otyłość III stopnia&lt;/div&gt;" style="text;html=1;strokeColor=none;fillColor=none;align=center;verticalAlign=middle;whiteSpace=wrap;rounded=0;" vertex="1" parent="1">
          <mxGeometry x="440" y="420" width="220" height="290" as="geometry" />
        </mxCell>
        <mxCell id="JfhitiqiBvcims726Zc8-22" value="" style="whiteSpace=wrap;html=1;aspect=fixed;fillColor=none;" vertex="1" parent="1">
          <mxGeometry x="440" y="460" width="220" height="220" as="geometry" />
        </mxCell>
        <mxCell id="JfhitiqiBvcims726Zc8-25" value="Kalkulator BMI&amp;nbsp; jest narzędziem, które mówi, czy ważymy odpowiednio do swojego wzrostu. Jest bardzo prosty w&amp;nbsp;obsłudze, a&amp;nbsp;normy pozwalają na jednoznaczną interpretację wyników. W&amp;nbsp;czasach, gdy nadmierna troska o&amp;nbsp;sylwetkę staje się problemem społecznym, kalkulator BMI jest wiarygodnym wyznacznikiem prawidłowej wagi." style="whiteSpace=wrap;html=1;aspect=fixed;" vertex="1" parent="1">
          <mxGeometry x="170" y="450" width="220" height="220" as="geometry" />
        </mxCell>
      </root>
    </mxGraphModel>
  </diagram>
</mxfile>
